<?xml version="1.0" encoding="UTF-8"?>
<svg id="svg2" xmlns="http://www.w3.org/2000/svg" version="1.1" xmlns:cc="http://creativecommons.org/ns#" xmlns:dc="http://purl.org/dc/elements/1.1/" xmlns:rdf="http://www.w3.org/1999/02/22-rdf-syntax-ns#" xmlns:svg="http://www.w3.org/2000/svg" xmlns:xlink="http://www.w3.org/1999/xlink" viewBox="0 0 721.93 245">
  <!-- Generator: Adobe Illustrator 29.8.3, SVG Export Plug-In . SVG Version: 2.1.1 Build 3)  -->
  <defs>
    <style>
      .st0 {
        fill: #fff;
      }

      .st1 {
        fill: none;
      }

      .st2 {
        fill: #f68123;
      }

      .st3 {
        clip-path: url(#clippath);
      }
    </style>
    <clipPath id="clippath">
      <rect class="st1" x="-207.07" y="-185.89" width="1122.52" height="612.13"/>
    </clipPath>
    <clipPath id="clippath-1">
      <rect class="st1" x="-207.07" y="-185.89" width="1122.52" height="612.13"/>
    </clipPath>
    <clipPath id="clippath-2">
      <rect class="st1" x="-207.07" y="-185.89" width="1122.52" height="612.13"/>
    </clipPath>
  </defs>
  <g id="g10">
    <g id="g12">
      <g id="g16">
        <path id="path18" class="st0" d="M12.81,25.42h30.93l18.15,34.53,18.19-34.53h30.77l-35.04,59.49v42.87h-27.91v-42.87L12.81,25.42Z"/>
      </g>
      <g id="g20">
        <path id="path22" class="st0" d="M113.42,25.42h74.62v21.85h-46.72v16.27h43.34v20.88h-43.34v20.18h48.07v23.18h-75.98V25.42Z"/>
      </g>
      <g id="g24">
        <g class="st3">
          <g id="g26">
            <g id="g32">
              <path id="path34" class="st0" d="M226.38,66.9h11.74c1.27,0,3.73-.47,7.38-1.4,1.84-.42,3.35-1.49,4.52-3.21,1.17-1.72,1.75-3.7,1.75-5.93,0-3.31-.92-5.84-2.77-7.61-1.84-1.77-5.31-2.65-10.39-2.65h-12.23v20.81ZM198.41,127.78V25.42h46.41c8.61,0,15.18.84,19.73,2.51,4.55,1.68,8.22,4.78,11,9.32s4.18,10.07,4.18,16.58c0,5.68-1.07,10.58-3.2,14.7-2.13,4.12-5.07,7.46-8.8,10.02-2.38,1.63-5.63,2.98-9.77,4.05,3.31,1.26,5.73,2.51,7.24,3.77,1.03.84,2.51,2.63,4.46,5.39,1.95,2.75,3.25,4.86,3.9,6.35l13.48,29.66h-31.46l-14.89-31.28c-1.89-4.05-3.57-6.68-5.04-7.89-2.01-1.58-4.28-2.37-6.82-2.37h-2.46v41.54h-27.97Z"/>
            </g>
            <g id="g36">
              <path id="path38" class="st0" d="M291.91,25.42h26l33.93,56.62V25.42h26.25v102.36h-26.25l-33.75-56.21v56.21h-26.19V25.42Z"/>
            </g>
            <g id="g40">
              <path id="path42" class="st2" d="M503.06,92.98l-30.93-50.25.89-12.18,30.03,62.43ZM398.57,98.55l27.18-29.93-13.35,36.37-13.83-6.44ZM409.26,113.56c-3.71.95-7.87,2.2-11.46,3.68l-.28-15.07,13.6,6.33-1.86,5.06ZM522.7,129.53h2.84l-3.98-6.65-47.99-99.78.46-6.29-26.73-6.91-14.72,40.11-42.62,46.93.45,24.65c-20.26,16.12-10.27,42.58,7.19,49.51,11.25,4.46,43.85,15.57,43.85,15.57l-.58-6.22-8.84-3.35-11.28-53.24,40.05-61.23,12.67,35.05-20.92-.14-20.59,31.63,52.97.2.06.16h35.64l.39.81,1.68-.81Z"/>
            </g>
            <g id="g44">
              <path id="path46" class="st0" d="M574.33,25.42h27.78v60.99c0,6.04-.83,11.75-2.49,17.12-1.66,5.38-4.26,10.08-7.81,14.1-3.54,4.03-7.26,6.84-11.16,8.47-5.41,2.28-11.91,3.42-19.49,3.42-4.39,0-9.17-.35-14.35-1.05-5.18-.7-9.52-2.08-13-4.15-3.48-2.07-6.67-5-9.56-8.82-2.89-3.82-4.87-7.75-5.93-11.79-1.72-6.52-2.58-12.29-2.58-17.3V25.42h27.79v62.43c0,5.59,1.36,9.95,4.09,13.08,2.72,3.14,6.51,4.71,11.34,4.71s8.55-1.55,11.28-4.64c2.73-3.08,4.09-7.47,4.09-13.15V25.42Z"/>
            </g>
            <g id="g48">
              <path id="path50" class="st0" d="M599.58,25.42h30.67l15.95,31.49,15.52-31.49h30.37l-28.05,49.57,30.69,52.78h-31.29l-17.79-32.89-17.8,32.89h-31.1l31.08-53.34-28.26-49.01Z"/>
            </g>
            <g id="g52">
              <path id="path54" class="st0" d="M12.81,209.8v-5.76h16.91v5.76h-5.1v20.26h-6.78v-20.26h-5.03Z"/>
            </g>
            <g id="g56">
              <path id="path58" class="st0" d="M46.65,204.04v5.54h-8.63v4.45h8.09v5.32h-8.09v5.17h8.96v5.54h-15.74v-26.01h15.41Z"/>
            </g>
            <g id="g60">
              <path id="path62" class="st0" d="M57.58,215.04c.97,0,1.69-.29,2.15-.86.46-.57.69-1.32.69-2.24,0-1.09-.23-1.87-.67-2.33s-1.18-.69-2.2-.69h-1.31v6.12h1.35ZM60.06,204.04c1.29,0,2.39.17,3.3.51.91.34,1.65.82,2.22,1.44.57.62.98,1.35,1.24,2.21.25.85.38,1.77.38,2.77,0,1.75-.35,3.16-1.06,4.23-.71,1.07-1.83,1.72-3.39,1.97v.07c1.63.15,2.75.72,3.35,1.71.61,1,.91,2.37.91,4.12v3.28c0,.37.01.71.04,1.04.03.33.06.62.11.89.05.27.11.47.18.62.1.15.19.28.29.42s.25.26.47.38v.36h-7.21c-.17-.34-.3-.74-.38-1.2-.08-.46-.15-.93-.18-1.38-.04-.46-.06-.91-.07-1.33-.01-.42-.02-.77-.02-1.04v-1.75c0-.73-.04-1.34-.11-1.82-.07-.49-.2-.87-.38-1.15-.18-.28-.41-.48-.69-.59-.28-.11-.63-.16-1.04-.16h-1.79v10.42h-6.78v-26.01h10.6Z"/>
            </g>
            <g id="g64">
              <path id="path66" class="st0" d="M78.5,215.04c.97,0,1.69-.29,2.15-.86.46-.57.69-1.32.69-2.24,0-1.09-.23-1.87-.67-2.33s-1.18-.69-2.2-.69h-1.31v6.12h1.35ZM80.97,204.04c1.29,0,2.39.17,3.3.51.91.34,1.65.82,2.22,1.44.57.62.98,1.35,1.24,2.21.25.85.38,1.77.38,2.77,0,1.75-.35,3.16-1.06,4.23-.71,1.07-1.83,1.72-3.39,1.97v.07c1.63.15,2.75.72,3.35,1.71.61,1,.91,2.37.91,4.12v3.28c0,.37.01.71.04,1.04.03.33.06.62.11.89.05.27.11.47.18.62.1.15.19.28.29.42s.25.26.47.38v.36h-7.21c-.17-.34-.3-.74-.38-1.2-.08-.46-.15-.93-.18-1.38-.04-.46-.06-.91-.07-1.33-.01-.42-.02-.77-.02-1.04v-1.75c0-.73-.04-1.34-.11-1.82-.07-.49-.2-.87-.38-1.15-.18-.28-.41-.48-.69-.59-.28-.11-.63-.16-1.04-.16h-1.79v10.42h-6.78v-26.01h10.6Z"/>
            </g>
            <g id="g68">
              <path id="path70" class="st0" d="M99.77,209.36l-1.86,11.04h3.79l-1.86-11.04h-.07ZM104.07,204.04l6.34,26.01h-7.21l-.69-4.56h-5.39l-.69,4.56h-7.1l6.23-26.01h8.52Z"/>
            </g>
            <g id="g72">
              <path id="path74" class="st0" d="M121.67,210.92c0-.78-.16-1.44-.47-1.98-.32-.55-.8-.82-1.46-.82-.73,0-1.26.24-1.61.71-.34.47-.51,1-.51,1.58,0,.85.27,1.53.82,2.02.55.5,1.23.93,2.06,1.3.82.37,1.71.73,2.66,1.11.95.38,1.83.87,2.66,1.47.82.61,1.51,1.4,2.06,2.39.55.98.82,2.27.82,3.85,0,2.77-.79,4.78-2.37,6.03-1.58,1.25-3.86,1.88-6.85,1.88-1.41,0-2.65-.12-3.73-.35-1.08-.23-1.99-.63-2.73-1.2-.74-.57-1.31-1.32-1.7-2.24-.39-.92-.58-2.06-.58-3.42v-.91h6.56v.62c0,1.12.21,1.9.62,2.35.42.45.95.67,1.61.67.7,0,1.24-.24,1.62-.73.37-.48.56-1.08.56-1.78,0-.85-.26-1.52-.78-2.02-.52-.5-1.18-.93-1.97-1.27-.79-.35-1.65-.71-2.57-1.08-.92-.36-1.78-.84-2.57-1.42-.79-.58-1.45-1.35-1.97-2.29-.53-.95-.79-2.18-.79-3.72,0-2.65.71-4.66,2.11-6.05,1.41-1.38,3.55-2.07,6.41-2.07s5.11.64,6.43,1.91c1.32,1.28,1.98,3.31,1.98,6.1h-6.34v-.62Z"/>
            </g>
            <g id="g76">
              <path id="path78" class="st0" d="M141.23,210.92c0-.78-.16-1.44-.47-1.98-.32-.55-.8-.82-1.46-.82-.73,0-1.26.24-1.61.71-.34.47-.51,1-.51,1.58,0,.85.27,1.53.82,2.02.55.5,1.23.93,2.06,1.3.82.37,1.71.73,2.66,1.11.95.38,1.83.87,2.66,1.47.82.61,1.51,1.4,2.06,2.39.55.98.82,2.27.82,3.85,0,2.77-.79,4.78-2.37,6.03-1.58,1.25-3.86,1.88-6.85,1.88-1.41,0-2.65-.12-3.73-.35-1.08-.23-1.99-.63-2.73-1.2-.74-.57-1.31-1.32-1.7-2.24-.39-.92-.58-2.06-.58-3.42v-.91h6.56v.62c0,1.12.21,1.9.62,2.35.42.45.95.67,1.61.67.7,0,1.24-.24,1.62-.73.37-.48.56-1.08.56-1.78,0-.85-.26-1.52-.78-2.02-.52-.5-1.18-.93-1.97-1.27-.79-.35-1.65-.71-2.57-1.08-.92-.36-1.78-.84-2.57-1.42-.79-.58-1.45-1.35-1.97-2.29-.53-.95-.79-2.18-.79-3.72,0-2.65.71-4.66,2.11-6.05,1.41-1.38,3.55-2.07,6.41-2.07s5.11.64,6.43,1.91c1.32,1.28,1.98,3.31,1.98,6.1h-6.34v-.62Z"/>
            </g>
            <g id="g80">
              <path id="path82" class="st0" d="M166.07,204.04v5.54h-8.63v4.45h8.09v5.32h-8.09v5.17h8.96v5.54h-15.74v-26.01h15.41Z"/>
            </g>
            <g id="g84">
              <path id="path86" class="st0" d="M178.31,204.04l2.73,15.41h.07l2.73-15.41h9.69v26.01h-6.34v-19.38h-.07l-3.6,19.38h-4.88l-3.61-19.38h-.07v19.38h-6.34v-26.01h9.69Z"/>
            </g>
            <g id="g88">
              <path id="path90" class="st0" d="M211.9,204.04v5.54h-8.63v4.45h8.09v5.32h-8.09v5.17h8.96v5.54h-15.74v-26.01h15.41Z"/>
            </g>
            <g id="g92">
              <path id="path94" class="st0" d="M222.29,204.04l4.37,16.03h.07v-16.03h6.34v26.01h-7.43l-4.52-16.06h-.07v16.06h-6.34v-26.01h7.58Z"/>
            </g>
            <g id="g96">
              <path id="path98" class="st0" d="M234.67,209.8v-5.76h16.91v5.76h-5.1v20.26h-6.78v-20.26h-5.03Z"/>
            </g>
            <g id="g100">
              <path id="path102" class="st0" d="M269.36,210.67c.27.49.71,1.12,1.31,1.89.8-.73,1.36-1.35,1.67-1.86.32-.51.47-.96.47-1.35,0-.54-.18-.97-.55-1.31-.36-.34-.83-.51-1.38-.51s-1.02.17-1.38.51c-.37.34-.55.77-.55,1.31,0,.39.13.83.4,1.31M267.83,221.22c-.27.47-.4.9-.4,1.29,0,.41.08.8.24,1.17.16.36.37.68.64.95.27.27.56.47.89.62.33.15.68.22,1.04.22.39,0,.79-.09,1.22-.27.42-.18.77-.38,1.04-.6l-3.46-4.7c-.53.41-.93.86-1.2,1.33M276.5,230.05l-1.13-1.53c-.49.29-.96.56-1.42.8-.46.24-.94.44-1.44.6-.5.16-1.03.28-1.58.38-.56.1-1.18.15-1.86.15-1.09,0-2.12-.14-3.08-.42-.96-.28-1.8-.72-2.53-1.31-.73-.6-1.31-1.35-1.73-2.26-.42-.91-.64-1.99-.64-3.22,0-1.53.4-2.95,1.18-4.25.79-1.3,2.02-2.4,3.7-3.3-.65-.9-1.23-1.85-1.73-2.86-.5-1.01-.75-2.02-.75-3.04,0-.9.17-1.72.53-2.46.35-.74.85-1.38,1.49-1.91.64-.53,1.41-.95,2.31-1.24.9-.29,1.91-.44,3.03-.44s2.17.15,3.08.44c.91.29,1.69.71,2.33,1.24.64.53,1.14,1.17,1.49,1.91.35.74.53,1.56.53,2.46,0,1.26-.39,2.46-1.17,3.59-.78,1.13-1.9,2.16-3.35,3.08l2.95,3.97c.27-.44.47-.92.6-1.44.13-.52.22-1.06.27-1.62h5.68c-.07,1.46-.34,2.87-.8,4.23-.46,1.36-1.21,2.55-2.26,3.57l3.5,4.88h-7.21Z"/>
            </g>
            <g id="g104">
              <path id="path106" class="st0" d="M301.45,209.36l-1.86,11.04h3.79l-1.86-11.04h-.07ZM305.75,204.04l6.34,26.01h-7.21l-.69-4.56h-5.39l-.69,4.56h-7.1l6.23-26.01h8.52Z"/>
            </g>
            <g id="g108">
              <path id="path110" class="st0" d="M322.65,204.04l2.73,15.41h.07l2.73-15.41h9.69v26.01h-6.34v-19.38h-.07l-3.61,19.38h-4.88l-3.61-19.38h-.07v19.38h-6.34v-26.01h9.69Z"/>
            </g>
            <g id="g112">
              <path id="path114" class="st0" d="M353.4,196.9l-3.5,5.32h-4.22l1.6-5.32h6.12ZM356.24,204.04v5.54h-8.63v4.45h8.09v5.32h-8.09v5.17h8.96v5.54h-15.74v-26.01h15.41Z"/>
            </g>
            <g id="g116">
              <path id="path118" class="st0" d="M366.63,204.04l4.37,16.03h.07v-16.03h6.34v26.01h-7.43l-4.52-16.06h-.07v16.06h-6.34v-26.01h7.58Z"/>
            </g>
            <g id="g120">
              <path id="path122" class="st0" d="M389.11,209.36l-1.86,11.04h3.79l-1.86-11.04h-.07ZM393.4,204.04l6.34,26.01h-7.21l-.69-4.56h-5.39l-.69,4.56h-7.1l6.23-26.01h8.52Z"/>
            </g>
            <g id="g124">
              <path id="path126" class="st0" d="M418.36,215.92v14.13h-4.59l-.15-2.29h-.07c-.22.56-.53,1.02-.93,1.38-.4.36-.85.64-1.35.82s-1.03.31-1.6.38c-.57.07-1.15.11-1.73.11-1.73,0-3.09-.28-4.08-.86-1-.57-1.75-1.43-2.26-2.57-.51-1.14-.83-2.55-.97-4.23-.13-1.67-.2-3.59-.2-5.76s.13-4.12.38-5.79c.26-1.67.74-3.08,1.46-4.22.71-1.14,1.7-2.01,2.97-2.61,1.26-.59,2.89-.89,4.88-.89,1.19,0,2.29.16,3.3.47,1.01.32,1.88.83,2.61,1.53.73.71,1.3,1.61,1.71,2.72.41,1.1.62,2.45.62,4.02h-6.56c0-1.38-.12-2.39-.36-3.02-.24-.75-.77-1.13-1.57-1.13-.56,0-1,.13-1.33.4-.33.27-.57.74-.73,1.42-.16.68-.26,1.6-.31,2.75-.05,1.15-.07,2.61-.07,4.36s.03,3.2.07,4.35c.05,1.15.15,2.07.31,2.75.16.68.39,1.15.69,1.42.3.27.71.4,1.22.4.36,0,.68-.07.97-.22.28-.15.52-.42.71-.82.19-.4.35-.96.46-1.68.11-.72.16-1.63.16-2.75h-2.4v-4.59h8.74Z"/>
            </g>
            <g id="g128">
              <path id="path130" class="st0" d="M436.54,204.04v5.54h-8.64v4.45h8.09v5.32h-8.09v5.17h8.97v5.54h-15.74v-26.01h15.41Z"/>
            </g>
            <g id="g132">
              <path id="path134" class="st0" d="M448.78,204.04l2.73,15.41h.07l2.73-15.41h9.69v26.01h-6.34v-19.38h-.07l-3.6,19.38h-4.88l-3.61-19.38h-.07v19.38h-6.34v-26.01h9.69Z"/>
            </g>
            <g id="g136">
              <path id="path138" class="st0" d="M482.37,204.04v5.54h-8.64v4.45h8.09v5.32h-8.09v5.17h8.97v5.54h-15.74v-26.01h15.41Z"/>
            </g>
            <g id="g140">
              <path id="path142" class="st0" d="M492.75,204.04l4.37,16.03h.07v-16.03h6.34v26.01h-7.43l-4.52-16.06h-.07v16.06h-6.34v-26.01h7.58Z"/>
            </g>
            <g id="g144">
              <path id="path146" class="st0" d="M505.14,209.8v-5.76h16.9v5.76h-5.1v20.26h-6.78v-20.26h-5.03Z"/>
            </g>
            <g id="g148">
              <path id="path150" class="st0" d="M548.45,204.04v5.54h-8.63v4.45h8.09v5.32h-8.09v5.17h8.96v5.54h-15.74v-26.01h15.41Z"/>
            </g>
            <g id="g152">
              <path id="path154" class="st0" d="M557.23,204.04l2.15,7.54h.07l2.15-7.54h7.58l-5.65,12.82,6.08,13.19h-7.58l-2.58-7.83h-.07l-2.59,7.83h-7.47l6.05-13.19-5.72-12.82h7.58Z"/>
            </g>
            <g id="g156">
              <path id="path158" class="st0" d="M569.18,209.8v-5.76h16.91v5.76h-5.1v20.26h-6.78v-20.26h-5.03Z"/>
            </g>
            <g id="g160">
              <path id="path162" class="st0" d="M600.19,196.9l-3.5,5.32h-4.22l1.6-5.32h6.12ZM603.03,204.04v5.54h-8.63v4.45h8.09v5.32h-8.09v5.17h8.96v5.54h-15.74v-26.01h15.41Z"/>
            </g>
            <g id="g164">
              <path id="path166" class="st0" d="M613.96,215.04c.97,0,1.69-.29,2.15-.86.46-.57.69-1.32.69-2.24,0-1.09-.23-1.87-.67-2.33s-1.18-.69-2.2-.69h-1.31v6.12h1.35ZM616.44,204.04c1.29,0,2.39.17,3.3.51.91.34,1.65.82,2.22,1.44.57.62.98,1.35,1.24,2.21.25.85.38,1.77.38,2.77,0,1.75-.35,3.16-1.06,4.23-.71,1.07-1.83,1.72-3.39,1.97v.07c1.63.15,2.75.72,3.35,1.71.61,1,.91,2.37.91,4.12v3.28c0,.37.01.71.04,1.04.03.33.06.62.11.89.05.27.11.47.18.62.1.15.19.28.29.42s.25.26.47.38v.36h-7.21c-.17-.34-.3-.74-.38-1.2-.08-.46-.15-.93-.18-1.38-.04-.46-.06-.91-.07-1.33-.01-.42-.02-.77-.02-1.04v-1.75c0-.73-.04-1.34-.11-1.82-.07-.49-.2-.87-.38-1.15-.18-.28-.41-.48-.69-.59-.28-.11-.63-.16-1.04-.16h-1.79v10.42h-6.78v-26.01h10.6Z"/>
            </g>
            <path id="path168" class="st0" d="M633.27,230.05h-6.78v-26.01h6.78v26.01Z"/>
            <g id="g170">
              <path id="path172" class="st0" d="M651.63,204.04v5.54h-8.63v4.45h8.09v5.32h-8.09v5.17h8.96v5.54h-15.74v-26.01h15.41Z"/>
            </g>
            <g id="g174">
              <path id="path176" class="st0" d="M660.92,222.8c0,1.26.18,2.11.55,2.53.36.43.86.64,1.49.64s1.13-.21,1.49-.64c.36-.42.55-1.27.55-2.53v-18.76h6.78v17.05c0,1.82-.19,3.34-.58,4.55-.39,1.22-.95,2.19-1.69,2.92-.74.73-1.66,1.23-2.75,1.49-1.09.27-2.36.4-3.79.4s-2.67-.13-3.77-.4c-1.1-.27-2.03-.76-2.77-1.49-.74-.73-1.31-1.7-1.69-2.92-.39-1.21-.59-2.73-.59-4.55v-17.05h6.78v18.76Z"/>
            </g>
            <g id="g178">
              <path id="path180" class="st0" d="M682.81,215.04c.97,0,1.69-.29,2.15-.86.46-.57.69-1.32.69-2.24,0-1.09-.23-1.87-.67-2.33s-1.18-.69-2.2-.69h-1.31v6.12h1.35ZM685.29,204.04c1.29,0,2.39.17,3.3.51.91.34,1.65.82,2.22,1.44.57.62.98,1.35,1.24,2.21.25.85.38,1.77.38,2.77,0,1.75-.35,3.16-1.06,4.23-.71,1.07-1.83,1.72-3.39,1.97v.07c1.63.15,2.75.72,3.35,1.71.61,1,.91,2.37.91,4.12v3.28c0,.37.01.71.04,1.04.03.33.06.62.11.89.05.27.11.47.18.62.1.15.19.28.29.42s.25.26.47.38v.36h-7.21c-.17-.34-.3-.74-.38-1.2-.08-.46-.15-.93-.18-1.38-.04-.46-.06-.91-.07-1.33-.01-.42-.02-.77-.02-1.04v-1.75c0-.73-.04-1.34-.11-1.82-.07-.49-.2-.87-.38-1.15-.18-.28-.41-.48-.69-.59-.28-.11-.63-.16-1.04-.16h-1.79v10.42h-6.78v-26.01h10.6Z"/>
            </g>
            <path id="path182" class="st2" d="M354.18,165.8H12.82v-3.73h341.36v3.73Z"/>
            <path id="path184" class="st2" d="M694.74,165.8h-232.84v-3.73h232.84v3.73Z"/>
          </g>
        </g>
      </g>
    </g>
  </g>
</svg>